<?xml version="1.0" standalone="no"?>
<!DOCTYPE svg PUBLIC "-//W3C//DTD SVG 20010904//EN"
 "http://www.w3.org/TR/2001/REC-SVG-20010904/DTD/svg10.dtd">
<svg version="1.0" xmlns="http://www.w3.org/2000/svg"
 width="848.000000pt" height="848.000000pt" viewBox="0 0 848.000000 848.000000"
 preserveAspectRatio="xMidYMid meet">
<metadata>
Created by potrace 1.14, written by Peter Selinger 2001-2017
</metadata>
<g transform="translate(0.000000,848.000000) scale(0.100000,-0.100000)"
fill="#000000" stroke="none">
<path d="M2847 7080 c-4 -18 -4 -37 0 -43 3 -5 1 -7 -4 -4 -10 6 -21 -27 -26
-75 -1 -10 -5 -18 -10 -18 -4 0 -6 -4 -2 -9 3 -5 1 -13 -5 -16 -8 -5 -7 -12 2
-23 7 -9 8 -13 2 -9 -7 4 -14 -2 -17 -16 -3 -12 -10 -37 -15 -55 -8 -24 -8
-31 1 -25 8 4 8 1 -1 -9 -22 -27 -33 -80 -20 -95 8 -11 7 -12 -6 -7 -12 5 -16
0 -16 -18 0 -13 -5 -29 -12 -36 -9 -9 -9 -12 1 -12 10 0 11 -3 2 -13 -10 -12
-56 -175 -67 -235 -3 -14 -9 -33 -15 -44 -5 -10 -7 -18 -3 -18 3 0 1 -7 -6
-15 -7 -8 -10 -15 -7 -15 3 0 1 -15 -4 -32 -6 -18 -11 -37 -12 -43 -2 -5 -6
-16 -11 -23 -4 -7 -2 -19 5 -28 10 -12 10 -15 -1 -12 -8 2 -20 -26 -35 -84
-12 -49 -20 -88 -17 -88 2 0 -1 -7 -8 -15 -6 -8 -9 -19 -5 -25 3 -5 1 -10 -4
-10 -6 0 -10 -3 -9 -7 1 -5 -4 -28 -11 -53 -15 -53 -21 -78 -26 -105 -2 -11
-8 -33 -15 -50 -6 -16 -11 -31 -11 -32 1 -2 0 -5 0 -8 -1 -3 -3 -9 -4 -15 -1
-5 -3 -11 -5 -12 -1 -2 -3 -10 -5 -18 -1 -8 -8 -35 -15 -60 -7 -25 -14 -52
-16 -60 -2 -8 -10 -40 -19 -70 -9 -30 -18 -66 -21 -80 -6 -32 -43 -158 -55
-188 -6 -14 -6 -21 0 -17 5 3 3 -7 -4 -22 -8 -16 -16 -39 -18 -53 -3 -14 -12
-49 -20 -78 -9 -28 -13 -52 -10 -52 3 0 0 -7 -7 -15 -6 -8 -9 -19 -6 -24 4 -5
2 -12 -3 -15 -9 -6 -25 -77 -21 -92 1 -4 -2 -10 -7 -13 -6 -5 -33 -97 -47
-164 -2 -7 -6 -19 -9 -27 -4 -8 -8 -24 -10 -35 -2 -11 -7 -28 -12 -37 -4 -10
-8 -29 -9 -43 0 -14 -5 -25 -10 -25 -5 0 -7 -3 -3 -6 3 -3 2 -17 -3 -30 -6
-14 -12 -35 -15 -47 -2 -12 -9 -38 -14 -57 -6 -19 -17 -60 -25 -90 -8 -30 -19
-70 -25 -88 -5 -18 -10 -35 -10 -37 -1 -3 -2 -7 -2 -10 -1 -3 -2 -11 -3 -17
-1 -7 -10 -12 -21 -10 -25 4 -126 43 -142 55 -7 5 -17 6 -23 2 -5 -3 -10 -2
-10 4 0 5 -11 8 -25 7 -13 -2 -22 0 -20 4 3 4 -10 13 -28 20 -17 7 -47 19 -65
27 -18 8 -40 12 -48 9 -8 -3 -13 -2 -10 2 2 4 -23 18 -57 31 -34 12 -76 29
-94 37 -17 8 -37 14 -45 14 -8 0 -23 7 -34 15 -10 8 -28 15 -40 15 -11 0 -24
3 -28 7 -15 15 -37 10 -56 -14 -15 -19 -17 -29 -9 -45 11 -21 34 -32 159 -78
47 -17 100 -38 119 -47 18 -8 39 -16 45 -17 6 -1 17 -5 24 -9 6 -5 17 -5 22
-2 6 3 10 2 10 -3 0 -9 79 -39 93 -34 4 1 7 -2 7 -6 0 -5 19 -15 43 -21 23 -7
48 -18 55 -23 8 -7 12 -6 12 3 1 10 4 9 11 -3 5 -10 25 -20 44 -24 19 -3 35
-10 35 -15 0 -5 9 -9 21 -9 18 0 20 -4 14 -37 -4 -21 -7 -44 -8 -50 0 -7 -4
-13 -8 -13 -4 0 -6 -11 -5 -25 2 -13 -1 -22 -5 -19 -5 3 -10 -4 -10 -15 -2
-25 -1 -23 -21 -91 -9 -30 -18 -66 -21 -80 -5 -21 -12 -25 -42 -26 -19 0 -35
2 -35 5 0 4 -9 7 -20 7 -11 0 -20 -5 -20 -11 0 -6 -3 -6 -8 1 -4 7 -50 15
-105 18 -54 4 -104 9 -112 12 -8 4 -15 1 -15 -6 0 -9 -4 -9 -12 -3 -18 14
-109 23 -102 11 4 -7 0 -7 -12 0 -11 5 -32 9 -47 8 -16 -1 -31 2 -34 7 -2 4
-11 3 -19 -4 -8 -6 -14 -7 -14 -2 0 5 -19 10 -43 12 -23 1 -68 4 -99 6 -62 4
-88 -9 -88 -45 0 -23 25 -49 48 -51 36 -3 90 -7 181 -13 52 -3 96 -8 99 -11 3
-3 12 1 20 8 13 9 14 9 8 0 -5 -10 7 -13 51 -14 58 -1 88 -4 143 -13 19 -2 30
0 30 7 0 7 4 6 9 -2 8 -13 12 -13 27 0 11 9 15 9 10 2 -5 -9 2 -13 26 -14 87
-3 129 -7 134 -12 3 -3 0 -25 -7 -48 -6 -24 -13 -51 -13 -59 -1 -9 -4 -20 -7
-25 -3 -6 -16 -50 -29 -100 -13 -49 -26 -93 -30 -98 -3 -4 -30 -8 -58 -8 -32
-1 -49 -5 -45 -12 4 -6 1 -7 -8 -1 -22 13 -151 7 -161 -8 -4 -8 -8 -8 -8 -2 0
6 -19 11 -44 10 -25 0 -42 -4 -39 -9 3 -5 -5 -4 -17 3 -18 9 -24 9 -30 0 -5
-9 -9 -9 -14 -1 -4 6 -12 8 -18 5 -6 -4 -59 -8 -119 -9 -104 -2 -147 -14 -133
-36 3 -5 0 -9 -6 -9 -12 0 6 -40 24 -52 18 -12 38 -9 30 5 -6 9 -4 9 7 1 8 -6
37 -9 64 -8 28 2 109 6 180 9 72 3 168 8 215 10 47 3 102 6 122 7 21 1 41 -2
45 -7 5 -4 2 -5 -4 -1 -12 7 -14 3 -17 -36 -1 -7 -4 -16 -9 -19 -4 -3 -8 -23
-10 -45 -1 -21 -5 -41 -9 -44 -4 -3 -9 -17 -10 -30 -2 -14 -5 -27 -8 -30 -14
-14 -28 -96 -18 -108 8 -9 7 -11 -6 -6 -12 5 -17 2 -15 -7 1 -8 0 -21 -3 -29
-11 -29 -87 -312 -94 -349 -3 -13 -10 -33 -15 -43 -6 -11 -8 -22 -5 -25 3 -4
2 -11 -3 -17 -6 -7 -12 -23 -14 -36 -3 -14 -8 -37 -12 -51 l-6 -26 -157 2
c-86 0 -165 -3 -174 -7 -9 -4 -19 -5 -21 0 -6 9 -290 8 -305 -2 -6 -3 -13 -3
-15 1 -6 10 -290 9 -305 -1 -6 -3 -13 -3 -15 1 -6 10 -290 9 -305 -1 -6 -3
-13 -3 -16 2 -3 4 -41 7 -85 6 -58 -1 -84 -6 -96 -18 -20 -19 -11 -60 11 -52
9 3 12 1 9 -4 -10 -16 1247 -13 1264 3 11 10 13 10 7 0 -8 -15 3 -15 509 -18
l330 -2 1 -29 c5 -93 8 -124 13 -124 3 0 7 -16 8 -35 2 -45 22 -107 32 -100 5
2 8 -3 8 -13 0 -29 24 -82 36 -75 5 3 7 1 3 -5 -3 -6 0 -17 8 -25 8 -8 13 -17
10 -19 -2 -3 27 -38 65 -78 46 -47 75 -71 85 -67 10 4 13 1 10 -8 -4 -9 4 -19
23 -27 15 -7 34 -19 42 -26 7 -7 20 -11 28 -8 8 3 11 1 8 -4 -3 -6 5 -10 19
-10 13 0 26 -4 28 -9 10 -28 239 -46 338 -27 60 11 129 39 123 49 -3 6 -1 7 5
3 12 -7 59 11 80 31 7 7 17 13 22 13 5 0 18 10 30 22 11 12 20 19 20 15 0 -8
65 56 108 106 17 22 29 43 26 48 -3 5 -1 9 5 9 8 0 43 60 47 80 0 3 7 19 14
35 15 34 16 37 25 85 12 66 17 105 18 150 l1 45 855 0 856 0 2 -65 c1 -36 7
-85 13 -110 6 -25 12 -54 14 -65 6 -35 18 -55 29 -48 6 3 7 1 3 -6 -9 -13 40
-121 55 -121 5 0 8 -4 6 -9 -3 -12 94 -122 103 -116 4 3 10 -1 13 -8 10 -27
161 -112 217 -123 3 0 13 -4 22 -8 9 -4 22 -5 28 -1 5 3 10 1 10 -6 0 -6 8 -9
20 -6 11 3 20 2 20 -2 0 -12 242 -3 258 9 1 2 6 3 11 4 5 0 13 4 17 9 4 4 15
7 24 7 20 0 77 27 85 41 4 5 11 7 16 4 5 -4 9 -2 9 4 0 5 10 13 21 16 28 9
137 118 175 175 33 49 70 130 67 142 -2 5 2 8 8 8 6 0 9 6 6 14 -3 7 -1 18 4
23 5 5 10 22 12 39 2 16 6 34 9 39 3 6 5 34 6 63 0 30 3 56 6 59 3 4 1 12 -5
20 -9 10 -7 13 7 14 29 1 249 1 344 0 47 -1 189 -1 315 0 127 1 235 1 240 -1
6 -1 13 -1 18 0 10 2 210 3 222 0 6 -1 13 -1 18 0 10 2 210 3 222 0 6 -1 13
-1 18 0 10 2 210 3 222 0 6 -1 12 -2 15 0 16 5 199 4 217 -2 12 -4 24 -4 27 0
2 4 24 7 48 5 24 -1 52 4 65 12 19 13 21 19 12 42 -8 25 -59 62 -59 44 0 -10
-31 -8 -49 3 -7 5 -16 5 -20 0 -8 -12 -41 -14 -41 -3 0 5 -10 5 -23 0 -13 -5
-30 -5 -37 -1 -8 5 -21 5 -31 0 -9 -5 -19 -7 -22 -4 -9 9 -78 10 -84 1 -3 -4
-11 -3 -19 4 -8 6 -14 8 -14 3 0 -5 -20 -9 -45 -9 -25 0 -45 2 -45 5 0 3 -17
4 -37 3 -51 -2 -85 -3 -103 -3 -8 1 -36 -1 -63 -2 -26 -2 -47 -1 -47 2 0 7
-99 4 -107 -3 -3 -4 -12 -2 -20 4 -7 6 -13 8 -13 3 0 -5 -20 -9 -45 -9 -25 0
-45 2 -45 5 0 3 -17 4 -37 3 -51 -2 -85 -3 -103 -3 -8 1 -36 -1 -63 -2 -26 -2
-47 -1 -47 2 0 7 -89 2 -107 -5 -7 -2 -13 -1 -13 4 0 5 -8 8 -17 7 -12 -1 -19
11 -26 39 -5 22 -11 47 -14 55 -3 8 -8 24 -10 35 -2 10 -9 23 -16 27 -8 5 -8
8 -1 8 8 0 8 11 -2 39 -7 22 -15 51 -18 65 -3 14 -8 31 -11 36 -4 6 -9 26 -12
43 -3 18 -8 34 -12 37 -4 3 -7 12 -7 20 0 27 -27 130 -33 130 -4 0 -8 11 -9
24 -1 13 -9 50 -18 82 -9 33 -18 69 -21 81 -3 14 -10 20 -17 16 -6 -4 -5 0 2
9 9 11 10 18 2 23 -5 3 -10 20 -10 37 0 25 -3 29 -17 23 -14 -5 -15 -3 -6 5 7
8 8 22 2 43 -6 23 -6 28 3 19 6 -6 18 -8 27 -3 19 9 32 8 49 -3 7 -4 19 -3 27
4 9 7 15 8 20 1 7 -12 32 -10 54 3 9 6 12 5 8 -1 -4 -7 16 -11 56 -12 34 -1
74 -3 90 -5 15 -2 30 1 33 6 3 5 11 5 18 -1 7 -6 22 -9 34 -6 12 2 24 -1 28
-6 4 -6 15 -4 30 6 14 9 23 11 22 4 -2 -7 17 -12 49 -14 36 -1 50 1 46 9 -5 7
-2 7 8 -1 23 -19 26 -19 48 1 24 22 27 44 8 70 -10 14 -31 18 -108 20 -53 2
-101 6 -108 10 -6 4 -11 2 -11 -4 0 -6 -4 -8 -10 -5 -11 7 -106 13 -297 19
-73 3 -137 7 -143 11 -6 4 -19 1 -28 -7 -15 -12 -16 -11 -3 5 12 15 12 24 1
60 -7 23 -14 49 -15 57 -1 8 -5 23 -9 33 -14 40 -18 54 -22 87 -3 19 -8 37
-12 40 -12 8 -14 48 -3 54 10 7 85 14 206 21 39 2 70 5 70 5 0 1 20 3 45 5 25
2 45 4 45 4 0 3 114 12 162 13 23 1 40 4 39 7 -2 3 28 6 68 7 123 1 145 10
142 56 -3 36 -6 38 -61 44 -37 4 -46 3 -40 -8 6 -10 5 -10 -4 -2 -8 7 -25 9
-46 4 -19 -4 -37 -5 -40 -2 -3 4 -10 0 -15 -8 -6 -9 -10 -10 -10 -3 0 7 -9 10
-22 7 -25 -5 -152 -15 -210 -17 -21 0 -38 -3 -38 -6 0 -3 -26 -7 -58 -8 -137
-5 -172 -8 -172 -16 0 -5 -6 -4 -13 2 -8 6 -16 9 -18 7 -6 -5 -81 -15 -76 -10
4 5 -18 96 -46 187 -8 26 -13 47 -10 47 3 0 0 6 -6 13 -6 8 -8 17 -4 20 3 4 2
12 -4 19 -16 22 -15 68 3 68 8 0 13 3 11 8 -3 4 7 8 21 9 15 0 28 6 30 12 2 6
7 9 11 7 8 -6 200 65 244 90 15 8 27 13 27 10 0 -3 25 5 55 19 31 13 59 25 63
26 4 1 17 5 30 10 13 5 28 9 33 9 5 0 9 5 9 12 0 6 3 9 6 5 9 -9 65 14 58 24
-3 5 2 6 11 3 8 -4 21 -1 29 5 7 6 16 8 19 4 12 -11 47 29 47 53 0 13 -9 29
-20 37 -23 16 -70 11 -66 -7 2 -6 1 -8 -1 -3 -6 9 -33 9 -33 -1 0 -4 -21 -14
-47 -22 -27 -8 -50 -15 -53 -16 -3 -1 -15 -5 -27 -9 -13 -4 -23 -11 -23 -16 0
-5 -3 -8 -7 -8 -25 4 -43 -2 -37 -13 5 -7 3 -8 -5 -3 -7 4 -23 3 -34 -3 -12
-6 -44 -18 -72 -28 -27 -9 -54 -21 -60 -26 -5 -4 -19 -8 -31 -8 -12 0 -24 -4
-26 -9 -1 -6 -16 -12 -33 -15 -16 -3 -31 -10 -33 -16 -2 -5 -7 -8 -12 -5 -4 3
-27 -4 -51 -14 -54 -23 -96 -36 -87 -26 4 4 2 19 -4 34 -5 14 -12 37 -14 51
-3 14 -7 32 -11 40 -7 19 -13 40 -15 63 -1 9 -5 17 -8 17 -3 0 -7 10 -8 23 -1
12 -4 31 -6 42 -3 11 -5 24 -5 28 -1 5 -6 5 -13 1 -7 -4 -8 -3 -4 5 9 14 -14
111 -26 111 -4 0 -5 7 -2 15 4 8 -2 27 -11 41 -9 15 -12 23 -6 20 13 -9 -4 40
-22 63 -9 12 -9 13 1 7 13 -8 17 6 5 18 -5 4 -8 11 -9 14 -8 57 -19 96 -30
106 -7 8 -11 16 -8 19 5 5 -18 100 -33 137 -3 8 -6 18 -5 22 1 3 -6 30 -15 60
-16 53 -19 62 -21 86 -1 7 -6 11 -10 8 -4 -3 -7 8 -6 25 1 16 -2 29 -6 29 -4
0 -8 6 -7 13 1 34 -4 58 -11 53 -4 -3 -8 5 -8 17 1 32 -26 121 -38 129 -7 5
-7 8 2 8 10 0 10 5 2 21 -6 11 -13 28 -15 37 -2 9 -8 37 -14 62 -7 25 -14 56
-17 69 -3 14 -8 29 -12 35 -3 6 -8 22 -10 36 -1 14 -5 32 -9 40 -9 23 -15 43
-16 63 -1 9 -5 17 -10 17 -4 0 -6 4 -3 8 3 5 -1 21 -9 36 -8 14 -10 24 -5 21
5 -3 3 10 -5 28 -8 19 -11 37 -8 41 4 3 1 6 -5 6 -6 0 -9 6 -6 14 3 8 1 17 -5
20 -6 4 -8 13 -4 21 3 8 1 15 -5 15 -5 0 -10 6 -9 13 1 33 -4 58 -10 54 -5 -3
-8 7 -9 22 -2 49 -14 82 -27 75 -9 -5 -9 -4 0 6 9 10 9 18 0 34 -12 22 -13 27
-15 64 -1 13 -6 20 -12 17 -5 -3 -8 0 -5 7 3 7 -4 45 -15 83 -11 39 -22 79
-25 90 -21 92 -28 121 -34 130 -6 11 -8 17 -10 41 -1 9 -6 12 -13 8 -10 -6
-10 -4 0 8 9 11 10 18 2 23 -5 3 -10 17 -10 31 0 14 -3 23 -7 21 -5 -3 -9 11
-10 31 -1 19 -5 38 -10 41 -4 3 -9 17 -9 31 -3 48 -4 51 -16 44 -7 -4 -8 -3
-4 4 3 6 -3 46 -15 89 -11 43 -28 106 -37 141 -11 45 -18 59 -24 48 -5 -9 -9
-18 -9 -21 0 -2 -7 -24 -15 -47 -9 -24 -18 -54 -20 -67 -3 -14 -8 -29 -12 -35
-4 -6 -7 -13 -8 -16 0 -3 -3 -12 -7 -20 -4 -11 -53 -165 -62 -200 -1 -3 -5
-13 -9 -22 -4 -9 -9 -22 -10 -30 -3 -12 -5 -20 -23 -65 -3 -10 -5 -24 -4 -30
1 -7 -4 -13 -10 -13 -7 0 -10 -3 -6 -6 3 -3 -3 -30 -13 -59 -10 -29 -16 -56
-13 -59 4 -3 1 -6 -6 -6 -6 0 -11 -6 -10 -12 1 -7 0 -20 -3 -28 -35 -93 -56
-160 -52 -160 4 0 2 -6 -4 -12 -5 -7 -12 -24 -14 -38 -1 -14 -9 -31 -16 -38
-7 -8 -10 -18 -6 -23 3 -6 1 -16 -5 -23 -6 -7 -12 -21 -14 -32 -1 -10 -5 -23
-8 -29 -8 -14 -23 -68 -21 -77 1 -5 -3 -8 -10 -8 -6 0 -9 -3 -5 -6 3 -3 -1
-25 -9 -47 -8 -23 -13 -50 -11 -59 3 -10 0 -16 -6 -15 -6 1 -12 -2 -12 -8 -1
-5 -8 -30 -15 -55 -8 -25 -14 -49 -15 -55 0 -5 -3 -12 -6 -15 -3 -3 -19 -46
-36 -97 -23 -69 -28 -94 -19 -104 8 -9 8 -10 -2 -5 -12 7 -21 -6 -26 -36 -1
-7 -5 -19 -9 -25 -5 -7 -5 -17 -2 -23 3 -5 2 -10 -3 -10 -8 0 -22 -41 -26 -75
-1 -12 -46 -16 -46 -4 0 5 -5 9 -10 9 -6 0 -30 9 -54 21 -24 11 -53 21 -65 22
-11 1 -21 5 -21 10 0 5 -12 7 -26 4 -15 -2 -28 0 -30 8 -5 12 -14 15 -63 18
-16 1 -27 5 -25 8 5 9 -24 16 -58 15 -15 -1 -25 1 -22 4 11 11 -101 26 -115
15 -11 -7 -13 -7 -7 3 5 8 1 12 -11 13 -86 5 -118 8 -120 9 -9 8 -50 5 -62 -4
-11 -8 -13 -8 -8 0 9 15 -73 15 -92 0 -11 -8 -13 -8 -8 0 9 15 -55 14 -65 -1
-5 -7 -8 -6 -8 1 0 13 -88 9 -220 -11 -19 -3 -50 -7 -68 -10 -19 -2 -41 -10
-50 -17 -13 -11 -14 -11 -8 0 7 11 4 12 -13 3 -12 -7 -26 -9 -31 -6 -5 3 -11
1 -15 -5 -3 -5 -17 -10 -31 -10 -17 0 -23 -4 -18 -12 4 -7 3 -8 -5 -4 -13 9
-54 -3 -164 -46 -43 -17 -74 -34 -68 -37 5 -4 -7 -7 -28 -7 -22 -1 -38 3 -38
10 0 12 -39 139 -53 171 -5 11 -14 38 -20 60 -6 22 -14 47 -17 55 -3 8 -8 24
-10 35 -2 10 -7 22 -11 25 -4 3 -8 16 -10 30 -1 13 -8 28 -15 32 -6 4 -9 8 -5
8 9 0 -21 101 -34 118 -6 6 -8 12 -4 12 3 0 0 15 -8 34 -8 19 -12 37 -8 40 3
3 0 6 -7 6 -7 0 -10 4 -7 9 9 14 -5 42 -17 34 -6 -3 -7 -1 -3 5 8 14 -14 93
-25 87 -4 -3 -5 5 -1 17 3 12 1 19 -4 15 -6 -3 -9 7 -8 24 1 16 -2 32 -7 35
-5 3 -9 14 -9 25 0 10 -5 19 -12 19 -6 0 -9 3 -5 6 3 3 -1 27 -10 52 -8 26
-15 53 -15 60 -1 6 -5 12 -10 12 -4 0 -8 9 -8 20 0 10 -4 29 -9 42 -16 39 -24
62 -27 76 -1 8 -6 21 -10 30 -9 22 -11 29 -13 48 0 8 -5 12 -11 9 -5 -3 -7 0
-4 8 2 7 -1 27 -7 43 -7 16 -13 34 -13 39 -2 18 -50 160 -55 165 -3 3 -7 10
-7 15 -6 39 -79 253 -86 249 -4 -3 -5 2 -2 10 3 8 1 22 -4 32 -7 13 -10 11
-15 -16z m-2 -159 c3 -5 2 -12 -3 -15 -5 -3 -9 1 -9 9 0 17 3 19 12 6z m925
-4837 c0 -8 -19 -13 -24 -6 -3 5 1 9 9 9 8 0 15 -2 15 -3z m-880 -678 c0 -2
-7 -7 -16 -10 -8 -3 -12 -2 -9 4 6 10 25 14 25 6z"/>
</g>
</svg>
